<?xml version="1.0" encoding="UTF-8" standalone="no"?>
<!-- Created with Inkscape (http://www.inkscape.org/) -->

<svg
   width="48mm"
   height="48mm"
   viewBox="0 0 48 48"
   version="1.1"
   id="svg5"
   inkscape:version="1.2.2 (732a01da63, 2022-12-09)"
   sodipodi:docname="upper110.svg"
   xml:space="preserve"
   xmlns:inkscape="http://www.inkscape.org/namespaces/inkscape"
   xmlns:sodipodi="http://sodipodi.sourceforge.net/DTD/sodipodi-0.dtd"
   xmlns="http://www.w3.org/2000/svg"
   xmlns:svg="http://www.w3.org/2000/svg"><sodipodi:namedview
     id="namedview7"
     pagecolor="#ffffff"
     bordercolor="#000000"
     borderopacity="0.25"
     inkscape:showpageshadow="2"
     inkscape:pageopacity="0.0"
     inkscape:pagecheckerboard="0"
     inkscape:deskcolor="#d1d1d1"
     inkscape:document-units="mm"
     showgrid="false"
     inkscape:zoom="2.8079686"
     inkscape:cx="19.587114"
     inkscape:cy="65.527798"
     inkscape:window-width="1920"
     inkscape:window-height="986"
     inkscape:window-x="-11"
     inkscape:window-y="-11"
     inkscape:window-maximized="1"
     inkscape:current-layer="layer1" /><defs
     id="defs2"><rect
       x="9.0655727"
       y="-8.0582867"
       width="168.57222"
       height="126.91802"
       id="rect1914" /><inkscape:path-effect
       effect="powerclip"
       id="path-effect1971"
       is_visible="true"
       lpeversion="1"
       inverse="true"
       flatten="false"
       hide_clip="false"
       message="クリップをパスに変換した後に残らない場合には&lt;b&gt;フィル/ストローク&lt;/b&gt;ダイアログのフィルルールで evenodd を使用します。" /><inkscape:path-effect
       effect="powerclip"
       id="path-effect1810"
       is_visible="true"
       lpeversion="1"
       inverse="true"
       flatten="false"
       hide_clip="false"
       message="クリップをパスに変換した後に残らない場合には&lt;b&gt;フィル/ストローク&lt;/b&gt;ダイアログのフィルルールで evenodd を使用します。" /><clipPath
       clipPathUnits="userSpaceOnUse"
       id="clipPath1967-5"><circle
         style="display:none;fill:#e3dbdb;stroke:none;stroke-width:0.928616;stroke-linejoin:round"
         id="circle1969-4"
         cx="35.586231"
         cy="129.65764"
         r="21" /><path
         id="lpe_path-effect1971-7"
         style="fill:#e3dbdb;stroke:none;stroke-width:0.928616;stroke-linejoin:round"
         class="powerclip"
         d="m 30.586231,107.68708 h 34 v 43.94112 h -34 z m 26,21.97056 a 21,21 0 0 0 -21,-21 21,21 0 0 0 -21,21 21,21 0 0 0 21,21 21,21 0 0 0 21,-21 z" /></clipPath><inkscape:path-effect
       effect="powerclip"
       id="path-effect1971-0"
       is_visible="true"
       lpeversion="1"
       inverse="true"
       flatten="false"
       hide_clip="false"
       message="クリップをパスに変換した後に残らない場合には&lt;b&gt;フィル/ストローク&lt;/b&gt;ダイアログのフィルルールで evenodd を使用します。" /><clipPath
       clipPathUnits="userSpaceOnUse"
       id="clipath_lpe_path-effect1971-0"><path
         id="lpe_path-effect1971-0"
         style="fill:#e3dbdb;stroke:none;stroke-width:0.928616;stroke-linejoin:round"
         class="powerclip"
         d="m 30.586231,107.68708 h 34 v 43.94112 h -34 z m 26,21.97056 a 21,21 0 0 0 -21,-21 21,21 0 0 0 -21,21 21,21 0 0 0 21,21 21,21 0 0 0 21,-21 z" /></clipPath></defs><g
     inkscape:label="Layer 1"
     inkscape:groupmode="layer"
     id="layer1"
     transform="translate(-78.800699,-115.70863)"><circle
       style="fill:#ff0000;stroke-width:0.460315;stroke-linecap:round;stroke-linejoin:round"
       id="path11355"
       cx="102.8007"
       cy="139.70863"
       r="18" /><circle
       style="fill:#ffffff;stroke-width:0.447528;stroke-linecap:round;stroke-linejoin:round"
       id="path11355-3"
       cx="102.8007"
       cy="139.70863"
       r="17.5" /><circle
       style="fill:#ff0000;stroke-width:0.434743;stroke-linecap:round;stroke-linejoin:round"
       id="path11355-0"
       cx="102.8007"
       cy="139.70863"
       r="17" /><circle
       style="fill:#ffffff;stroke-width:0.306877;stroke-linecap:round;stroke-linejoin:round"
       id="path11355-3-8"
       cx="102.8007"
       cy="139.70863"
       r="12" /><path
       d="m 96.70132,133.22008 v 12.97711 h -1.491917 v -9.92367 h -1.893587 v -1.3995 q 2.065731,-0.12722 2.295257,-1.65394 z"
       style="font-weight:bold;font-size:16.285px;font-family:HGPGothicE;-inkscape-font-specification:'HGPGothicE Bold';text-align:center;text-anchor:middle;fill:#112987;stroke-width:0.274018;stroke-linecap:round;stroke-linejoin:round"
       id="path18660" /><path
       d="m 102.8007,133.22008 v 12.97711 h -1.49191 v -9.92367 h -1.893594 v -1.3995 q 2.065734,-0.12722 2.295264,-1.65394 z"
       style="font-weight:bold;font-size:16.285px;font-family:HGPGothicE;-inkscape-font-specification:'HGPGothicE Bold';text-align:center;text-anchor:middle;fill:#112987;stroke-width:0.274018;stroke-linecap:round;stroke-linejoin:round"
       id="path18660-3" /><path
       d="m 109.55965,133.09285 q 1.20501,0 1.95097,0.82697 1.43454,1.59034 1.43454,5.78881 0,4.19848 -1.43454,5.78881 -0.74596,0.82697 -1.95097,0.82697 -1.20501,0 -1.95097,-0.82697 -1.43453,-1.59033 -1.43453,-5.78881 0,-4.19847 1.43453,-5.78881 0.74596,-0.82697 1.95097,-0.82697 z m 0,1.52672 q -0.51643,0 -0.97548,0.50891 -0.91811,1.01781 -0.91811,4.58015 0,3.56235 0.91811,4.58016 0.45905,0.5089 0.97548,0.5089 0.51643,0 0.97549,-0.5089 0.9181,-1.01781 0.9181,-4.58016 0,-3.56234 -0.9181,-4.58015 -0.45906,-0.50891 -0.97549,-0.50891 z"
       style="font-weight:bold;font-size:16.285px;font-family:HGPGothicE;-inkscape-font-specification:'HGPGothicE Bold';text-align:center;text-anchor:middle;fill:#112987;stroke-width:0.274018;stroke-linecap:round;stroke-linejoin:round"
       id="path18664" /></g></svg>
