<?xml version="1.0" encoding="UTF-8" standalone="no"?>
<!-- Created with Inkscape (http://www.inkscape.org/) -->

<svg
   width="48mm"
   height="48mm"
   viewBox="0 0 48 48"
   version="1.1"
   id="svg5"
   inkscape:version="1.2.2 (732a01da63, 2022-12-09)"
   sodipodi:docname="noovertaking.svg"
   xml:space="preserve"
   xmlns:inkscape="http://www.inkscape.org/namespaces/inkscape"
   xmlns:sodipodi="http://sodipodi.sourceforge.net/DTD/sodipodi-0.dtd"
   xmlns="http://www.w3.org/2000/svg"
   xmlns:svg="http://www.w3.org/2000/svg"><sodipodi:namedview
     id="namedview7"
     pagecolor="#ffffff"
     bordercolor="#000000"
     borderopacity="0.25"
     inkscape:showpageshadow="2"
     inkscape:pageopacity="0.0"
     inkscape:pagecheckerboard="0"
     inkscape:deskcolor="#d1d1d1"
     inkscape:document-units="mm"
     showgrid="false"
     inkscape:zoom="2.8079686"
     inkscape:cx="102.92138"
     inkscape:cy="130.69947"
     inkscape:window-width="1920"
     inkscape:window-height="986"
     inkscape:window-x="-11"
     inkscape:window-y="-11"
     inkscape:window-maximized="1"
     inkscape:current-layer="layer1" /><defs
     id="defs2"><rect
       x="9.0655727"
       y="-8.0582867"
       width="168.57222"
       height="126.91802"
       id="rect1914" /><inkscape:path-effect
       effect="powerclip"
       id="path-effect1971"
       is_visible="true"
       lpeversion="1"
       inverse="true"
       flatten="false"
       hide_clip="false"
       message="クリップをパスに変換した後に残らない場合には&lt;b&gt;フィル/ストローク&lt;/b&gt;ダイアログのフィルルールで evenodd を使用します。" /><inkscape:path-effect
       effect="powerclip"
       id="path-effect1810"
       is_visible="true"
       lpeversion="1"
       inverse="true"
       flatten="false"
       hide_clip="false"
       message="クリップをパスに変換した後に残らない場合には&lt;b&gt;フィル/ストローク&lt;/b&gt;ダイアログのフィルルールで evenodd を使用します。" /><clipPath
       clipPathUnits="userSpaceOnUse"
       id="clipPath1967-5"><circle
         style="display:none;fill:#e3dbdb;stroke:none;stroke-width:0.928616;stroke-linejoin:round"
         id="circle1969-4"
         cx="35.586231"
         cy="129.65764"
         r="21" /><path
         id="lpe_path-effect1971-7"
         style="fill:#e3dbdb;stroke:none;stroke-width:0.928616;stroke-linejoin:round"
         class="powerclip"
         d="m 30.586231,107.68708 h 34 v 43.94112 h -34 z m 26,21.97056 a 21,21 0 0 0 -21,-21 21,21 0 0 0 -21,21 21,21 0 0 0 21,21 21,21 0 0 0 21,-21 z" /></clipPath><inkscape:path-effect
       effect="powerclip"
       id="path-effect1971-0"
       is_visible="true"
       lpeversion="1"
       inverse="true"
       flatten="false"
       hide_clip="false"
       message="クリップをパスに変換した後に残らない場合には&lt;b&gt;フィル/ストローク&lt;/b&gt;ダイアログのフィルルールで evenodd を使用します。" /><clipPath
       clipPathUnits="userSpaceOnUse"
       id="clipath_lpe_path-effect1971-0"><path
         id="lpe_path-effect1971-0"
         style="fill:#e3dbdb;stroke:none;stroke-width:0.928616;stroke-linejoin:round"
         class="powerclip"
         d="m 30.586231,107.68708 h 34 v 43.94112 h -34 z m 26,21.97056 a 21,21 0 0 0 -21,-21 21,21 0 0 0 -21,21 21,21 0 0 0 21,21 21,21 0 0 0 21,-21 z" /></clipPath></defs><g
     inkscape:label="Layer 1"
     inkscape:groupmode="layer"
     id="layer1"
     transform="translate(-78.800699,-115.70863)"><circle
       style="fill:#ff0000;stroke-width:0.460315;stroke-linecap:round;stroke-linejoin:round"
       id="path11355"
       cx="102.8007"
       cy="139.70863"
       r="18" /><circle
       style="fill:#ffffff;stroke-width:0.447528;stroke-linecap:round;stroke-linejoin:round"
       id="path11355-3"
       cx="102.8007"
       cy="139.70863"
       r="17.5" /><circle
       style="fill:#ff0000;stroke-width:0.434743;stroke-linecap:round;stroke-linejoin:round"
       id="path11355-0"
       cx="102.8007"
       cy="139.70863"
       r="17" /><circle
       style="fill:#ffffff;stroke-width:0.306877;stroke-linecap:round;stroke-linejoin:round"
       id="path11355-3-8"
       cx="102.8007"
       cy="139.70863"
       r="12" /><path
       id="path22959"
       style="fill:#112987;stroke-width:0.0829511;stroke-linecap:round;stroke-linejoin:round"
       inkscape:transform-center-y="-0.81313485"
       d="m 99.709531,140.74018 -3.044775,4.60385 c -0.390673,0.67666 0.341699,1.40186 0.958598,0.78497 l 1.102775,-0.99529 v 3.72845 h 1.966801 v -3.72845 l 1.10278,0.99529 c 0.6169,0.61689 1.34927,-0.10831 0.9586,-0.78497 z" /><rect
       style="fill:#ff0000;fill-opacity:1;stroke-width:0.450001;stroke-linecap:round;stroke-linejoin:round"
       id="rect26252"
       width="2.739819"
       height="25.120872"
       x="-27.467758"
       y="158.91956"
       transform="rotate(-45,-8.3894899e-7,-1.6733292e-6)" /><path
       style="color:#000000;fill:#ffffff;stroke-linecap:round;stroke-linejoin:round;-inkscape-stroke:none"
       d="m 104.17383,128.54102 a 0.45054506,0.45054506 0 0 0 -0.375,0.20312 l -3.72461,5.63086 a 0.45054506,0.45054506 0 0 0 -0.0156,0.0234 c -0.334706,0.57972 -0.205316,1.25953 0.21485,1.63476 0.42016,0.37524 1.16526,0.37184 1.66797,-0.13086 l 0.63867,-0.57617 c 0.0119,0.17941 0.001,0.17156 0.0234,0.38672 0.0771,0.74665 0.21269,1.64267 0.53515,2.33789 0.42361,0.91337 0.89007,1.56857 1.54883,2.0957 0.60332,0.48278 1.30394,0.8548 1.88867,1.24414 0.58474,0.38935 1.02866,0.7857 1.21094,1.23829 0.45386,1.1269 0.3327,2.06515 -0.0703,2.56054 -1.27154,1.56302 -2.13296,2.04196 -3.12696,2.75196 a 0.45054506,0.45054506 0 0 0 -0.10351,0.63086 l 1.48437,2.05078 a 0.45054506,0.45054506 0 0 0 0.59766,0.12109 c 0,0 2.90044,-1.71217 4.24219,-4.07617 0.64688,-1.13971 0.94549,-3.10634 0.20117,-5.03711 -0.42369,-1.09904 -1.2895,-2.0083 -2.18359,-2.66797 -0.8427,-0.62174 -1.61554,-0.9251 -2.40821,-1.81836 -0.32222,-0.36311 -0.50745,-1.05399 -0.57031,-1.65625 -0.005,-0.0498 0.002,-0.0418 -0.002,-0.0898 l 0.55859,0.5039 c 0.5027,0.5027 1.2478,0.5061 1.66797,0.13086 0.42016,-0.37523 0.54759,-1.05504 0.21289,-1.63476 a 0.45054506,0.45054506 0 0 0 -0.0137,-0.0234 l -3.72461,-5.63086 a 0.45054506,0.45054506 0 0 0 -0.375,-0.20312 z m 0,1.26562 3.33398,5.04297 c 0.14089,0.24641 0.0614,0.42552 -0.0352,0.51172 -0.0969,0.0865 -0.17788,0.15415 -0.42969,-0.0977 a 0.45054506,0.45054506 0 0 0 -0.0156,-0.0156 l -1.34961,-1.2168 a 0.45054506,0.45054506 0 0 0 -0.75,0.29883 c 0,0 -0.0467,0.56158 0.0254,1.25195 0.0721,0.69038 0.24146,1.53866 0.79296,2.16016 0.91691,1.03326 1.81711,1.40545 2.54883,1.94531 0.79497,0.58653 1.54436,1.40482 1.87696,2.26758 0.63655,1.65124 0.32952,3.43432 -0.14454,4.26953 -1.0258,1.80735 -3.09888,3.18606 -3.59179,3.50586 l -0.95508,-1.32227 c 0.84977,-0.59101 1.75691,-1.20157 2.93555,-2.65039 0.6811,-0.83722 0.74596,-2.1267 0.20703,-3.46484 -0.2967,-0.73668 -0.91296,-1.22895 -1.54883,-1.65235 -0.63588,-0.42339 -1.3148,-0.78963 -1.82422,-1.19726 -0.54176,-0.43351 -0.90629,-0.93351 -1.29492,-1.77149 -0.23144,-0.49898 -0.38251,-1.34999 -0.45508,-2.05273 -0.0726,-0.70274 -0.0781,-1.25781 -0.0781,-1.25781 a 0.45054506,0.45054506 0 0 0 -0.75196,-0.33008 l -1.34961,1.2168 a 0.45054506,0.45054506 0 0 0 -0.0176,0.0156 c -0.25181,0.25181 -0.3328,0.18418 -0.42968,0.0977 -0.0965,-0.0862 -0.1741,-0.26531 -0.0332,-0.51172 z"
       id="path22959-4-6" /><path
       id="path22959-4"
       style="fill:#112987;fill-opacity:1;stroke-width:0.101456;stroke-linecap:round;stroke-linejoin:round"
       inkscape:transform-center-y="-0.99452922"
       d="m 104.17362,128.99216 -3.72401,5.63089 c -0.477828,0.8276 0.41792,1.71458 1.17244,0.96007 l 1.34878,-1.21731 c 0,0 0.0224,2.30167 0.5763,3.49587 0.40612,0.87567 0.82137,1.45359 1.42163,1.93391 1.11274,0.8904 2.7581,1.47606 3.23708,2.66532 0.4964,1.23252 0.19014,2.64649 -0.1988,3.0721 -1.39725,1.52898 -2.18316,2.08136 -3.15479,2.77538 l 1.48282,2.05108 c 0,0 2.83719,-1.71653 4.08384,-3.91298 0.56047,-0.98746 0.86367,-2.86248 0.17323,-4.65349 -0.37814,-0.9809 -1.18603,-1.84444 -2.03056,-2.46754 -0.78721,-0.5808 -1.6237,-0.91882 -2.47849,-1.88208 -0.87373,-0.98461 -0.70669,-3.07757 -0.70669,-3.07757 l 1.34878,1.21731 c 0.75452,0.75451 1.65027,-0.13247 1.17245,-0.96007 z"
       sodipodi:nodetypes="ccccssssccsssscccc" /></g></svg>
