<?xml version="1.0" encoding="UTF-8" standalone="no"?>
<!-- Created with Inkscape (http://www.inkscape.org/) -->

<svg
   width="48mm"
   height="48mm"
   viewBox="0 0 48 48"
   version="1.1"
   id="svg5"
   inkscape:version="1.2.2 (732a01da63, 2022-12-09)"
   sodipodi:docname="stop.svg"
   xml:space="preserve"
   xmlns:inkscape="http://www.inkscape.org/namespaces/inkscape"
   xmlns:sodipodi="http://sodipodi.sourceforge.net/DTD/sodipodi-0.dtd"
   xmlns="http://www.w3.org/2000/svg"
   xmlns:svg="http://www.w3.org/2000/svg"><sodipodi:namedview
     id="namedview7"
     pagecolor="#ffffff"
     bordercolor="#000000"
     borderopacity="0.25"
     inkscape:showpageshadow="2"
     inkscape:pageopacity="0.0"
     inkscape:pagecheckerboard="0"
     inkscape:deskcolor="#d1d1d1"
     inkscape:document-units="mm"
     showgrid="false"
     inkscape:zoom="2.8284271"
     inkscape:cx="73.185552"
     inkscape:cy="32.880465"
     inkscape:window-width="1920"
     inkscape:window-height="986"
     inkscape:window-x="-11"
     inkscape:window-y="-11"
     inkscape:window-maximized="1"
     inkscape:current-layer="layer1" /><defs
     id="defs2"><rect
       x="9.0655727"
       y="-8.0582867"
       width="168.57222"
       height="126.91802"
       id="rect1914" /><inkscape:path-effect
       effect="powerclip"
       id="path-effect1971"
       is_visible="true"
       lpeversion="1"
       inverse="true"
       flatten="false"
       hide_clip="false"
       message="クリップをパスに変換した後に残らない場合には&lt;b&gt;フィル/ストローク&lt;/b&gt;ダイアログのフィルルールで evenodd を使用します。" /><inkscape:path-effect
       effect="powerclip"
       id="path-effect1810"
       is_visible="true"
       lpeversion="1"
       inverse="true"
       flatten="false"
       hide_clip="false"
       message="クリップをパスに変換した後に残らない場合には&lt;b&gt;フィル/ストローク&lt;/b&gt;ダイアログのフィルルールで evenodd を使用します。" /><clipPath
       clipPathUnits="userSpaceOnUse"
       id="clipPath1967-5"><circle
         style="display:none;fill:#e3dbdb;stroke:none;stroke-width:0.928616;stroke-linejoin:round"
         id="circle1969-4"
         cx="35.586231"
         cy="129.65764"
         r="21" /><path
         id="lpe_path-effect1971-7"
         style="fill:#e3dbdb;stroke:none;stroke-width:0.928616;stroke-linejoin:round"
         class="powerclip"
         d="m 30.586231,107.68708 h 34 v 43.94112 h -34 z m 26,21.97056 a 21,21 0 0 0 -21,-21 21,21 0 0 0 -21,21 21,21 0 0 0 21,21 21,21 0 0 0 21,-21 z" /></clipPath><inkscape:path-effect
       effect="powerclip"
       id="path-effect1971-0"
       is_visible="true"
       lpeversion="1"
       inverse="true"
       flatten="false"
       hide_clip="false"
       message="クリップをパスに変換した後に残らない場合には&lt;b&gt;フィル/ストローク&lt;/b&gt;ダイアログのフィルルールで evenodd を使用します。" /><clipPath
       clipPathUnits="userSpaceOnUse"
       id="clipath_lpe_path-effect1971-0"><path
         id="lpe_path-effect1971-0"
         style="fill:#e3dbdb;stroke:none;stroke-width:0.928616;stroke-linejoin:round"
         class="powerclip"
         d="m 30.586231,107.68708 h 34 v 43.94112 h -34 z m 26,21.97056 a 21,21 0 0 0 -21,-21 21,21 0 0 0 -21,21 21,21 0 0 0 21,21 21,21 0 0 0 21,-21 z" /></clipPath></defs><g
     inkscape:label="Layer 1"
     inkscape:groupmode="layer"
     id="layer1"
     transform="translate(-78.800699,-115.70863)"><g
       id="path4442"
       inkscape:transform-center-y="5.1679475"
       transform="matrix(0.19125376,0,0,-0.19125376,95.576429,141.09081)"
       style="fill:#ff0000;stroke:none;stroke-opacity:0.40816304;fill-opacity:1"><path
         style="color:#000000;fill:#ff0000;fill-opacity:1;stroke-linecap:round;stroke-linejoin:round;-inkscape-stroke:none;stroke:none;stroke-opacity:0.40816304"
         d="m 33.302515,-86.119485 c -2.887871,1.051324 -5.31303,3.086467 -6.849609,5.748047 L -67.152563,81.755515 c -5.029195,8.714396 1.258828,19.605605 11.320313,19.607425 h 187.21094 c 10.06148,-0.002 16.3495,-10.89303 11.32031,-19.607425 L 49.093531,-80.371438 c -3.171976,-5.493414 -9.8299,-7.916948 -15.791016,-5.748047 z"
         id="path7199"
         sodipodi:nodetypes="cccccccc" /></g><g
       id="path4442-9"
       inkscape:transform-center-y="5.1138862"
       transform="matrix(0.18925319,0,0,-0.18925319,73.889976,120.10835)"
       style="fill:#ffffff;fill-opacity:1"><path
         style="color:#000000;fill:#ffffff;fill-opacity:1;stroke-linecap:round;stroke-linejoin:round;-inkscape-stroke:none"
         d="m 149.16839,-194.50285 c -2.32113,0.84475 -4.2705,2.48017 -5.50586,4.61914 L 50.057063,-27.754808 c -4.041436,7.004611 1.01272,15.757989 9.09961,15.759766 H 246.36761 c 8.08689,-0.0018 13.14105,-8.755155 9.09961,-15.759766 L 161.86175,-189.88371 c -2.5501,-4.41537 -7.90193,-6.36292 -12.69336,-4.61914 z"
         id="path7193"
         sodipodi:nodetypes="sccccccs" /></g><g
       id="path4442-9-0"
       inkscape:transform-center-y="5.1769082"
       transform="matrix(0.1915852,0,0,-0.1915852,61.300514,124.43293)"
       style="fill:#ff0000"><path
         style="color:#000000;fill:#ff0000;fill-opacity:0.814059;stroke-linecap:round;stroke-linejoin:round;-inkscape-stroke:none"
         d="m 216.61576,-166.90114 c -2.18077,-3.8e-4 -4.19613,1.16253 -5.28711,3.05078 L 118.68304,-3.3839697 c -3.07929,5.3334833 1.82286,10.6213565 5.49249,10.8187631 h 186.0457 c 4.55359,0 7.15463,-5.9181666 4.55007,-10.4294729 L 221.90287,-163.85036 c -1.09099,-1.88825 -3.10635,-3.05116 -5.28711,-3.05078 z"
         id="path7187"
         sodipodi:nodetypes="cccccccc" /></g><g
       id="g9224"
       transform="translate(39.74344,5.0250328)"
       style="fill:#ffffff"><path
         id="rect7380-9"
         style="fill:#ffffff;stroke-width:2.65718;stroke-linecap:round;stroke-linejoin:round;stroke-opacity:0.408163"
         d="m 70.23778,123.83266 c -0.26894,10e-4 -0.537951,0.15727 -0.537951,0.46457 v 3.42874 l -0.40411,0.37672 c -0.09083,0.0908 -0.273479,0.0171 -0.204122,-0.24185 l 0.361218,-1.90996 c -0.04263,-0.43264 -0.376697,-0.60994 -0.714168,-0.59118 h -0.929659 c -0.774853,0 -0.739659,1.09483 -0.03307,1.28416 0.119889,0.0393 0.254247,0.0744 0.374137,0.11369 -0.231892,1.19893 -0.618837,2.43389 -0.820105,3.6158 -0.02033,0.3275 0.265172,0.52992 0.547771,0.53743 5.14e-4,2e-5 9.5e-4,-10e-6 0.0016,0 0.01656,4e-4 0.03313,-10e-5 0.04961,-10e-4 5.14e-4,-4e-5 9.51e-4,4e-5 0.0016,0 0.163709,-0.01 0.258512,-0.0518 0.407727,-0.20102 l 1.361674,-1.37718 v 1.4087 c 0,0.68207 1.075903,0.67814 1.075903,0 v -2.497 l 1.3224,-1.33739 c 0.08576,-0.0932 0.177767,0.0175 0.177767,0.0791 v 3.45715 c 0,0.46911 0.593392,0.61881 0.948262,0.41393 l 1.031979,-0.64803 c 0.611743,-0.38409 -0.05981,-1.43312 -0.662492,-1.05471 -0.113815,0.0657 -0.241846,0.007 -0.241846,-0.12196 v -2.79983 c 0,-0.34754 -0.982038,-1.03076 -1.535307,-0.47749 l -0.891418,0.83078 c -0.07942,0.0794 -0.149345,0.0522 -0.149345,-0.0691 v -2.21847 c 0,-0.31192 -0.269012,-0.46572 -0.537952,-0.46457 z"
         sodipodi:nodetypes="cscccccscccccccccssccsscccsscccsc" /><path
         id="rect7277"
         style="fill:#ffffff;stroke-width:2.339;stroke-linecap:round;stroke-linejoin:round;stroke-opacity:0.408163"
         d="m 52.593039,130.06769 h 0.78343 l 3.97e-4,-3.61315 c 0,-0.56199 1.064,-0.57708 1.064,0.0118 l -3.3e-4,3.60138 h 1.239462 l -1.32e-4,-5.59611 c 0,-0.75427 1.186549,-0.88328 1.186549,-0.006 l 1.45e-4,1.86625 1.181033,-0.58465 c 0.663409,-0.38302 0.898479,0.76547 0.502817,0.99391 l -1.853287,1.14007 1.7e-4,2.18663 h 2.385384 c 0.682239,0 0.670211,1.1693 0,1.1693 h -6.489638 c -0.763903,0 -0.781665,-1.16933 0,-1.16933 z"
         sodipodi:nodetypes="cccccccccccccccccc" /><path
         id="rect7332"
         style="fill:#ffffff;stroke-width:2.339;stroke-linecap:round;stroke-linejoin:round;stroke-opacity:0.408163"
         d="m 63.701228,123.8771 c -0.257246,9.9e-4 -0.51418,0.1481 -0.51418,0.4377 v 0.47956 h -2.016931 c -0.736817,0 -0.732133,1.21595 0,1.21595 h 2.016931 v 0.87488 h -2.016931 c -0.736817,0 -0.732133,1.21595 0,1.21595 h 2.016931 v 0.71261 c -0.768037,-0.0356 -1.065563,-0.0214 -1.393197,0.003 -0.274451,0.0217 -0.977017,0.2854 -1.177706,0.67231 -0.304595,0.58723 0.120991,1.68457 0.720648,1.68457 0.03511,0 2.103407,0.0626 2.298797,-0.0455 0.118216,-0.0654 0.537006,-0.28049 0.597906,-0.85879 0.429353,0.0732 0.740484,0.4976 1.179256,0.5209 0.716084,0 0.764918,-0.99529 0.235644,-1.25781 -0.496905,-0.22546 -0.989692,-0.44334 -1.43247,-0.58084 V 128.101 h 1.443839 c 0.716084,0 0.725643,-1.21595 0,-1.21595 h -1.443839 v -0.87488 h 1.443839 c 0.716084,0 0.725643,-1.21595 0,-1.21595 h -1.443839 v -0.47956 c 0,-0.29355 -0.257451,-0.43868 -0.514698,-0.4377 z m -1.540474,5.8875 c 0.235629,-0.002 0.469765,0.0111 0.702283,0.0367 0.2292,0.0614 0.262907,0.45111 0.02584,0.47594 -0.0079,3.2e-4 -0.016,7.7e-4 -0.02377,0.001 -0.637021,0.022 -1.256334,-0.0253 -1.272274,-0.0258 -0.187963,0 -0.179138,-0.45114 0.01499,-0.45114 0.185663,-0.0234 0.36967,-0.0348 0.552938,-0.0367 z"
         sodipodi:nodetypes="cscssccsscccssscccccssccsscscscccccs" /></g></g></svg>
